# xmcd
#
# Track frame offsets:
#	150
#	12267
#	26240
#	35360
#	50855
#	62535
#	76777
#	89685
#	103582
#	117750
#	130757
#	145487
#	158907
#	173025
#	188500
#	200620
#	213085
#	225157
#
# Disc length: 3182 seconds
#
# Revision: 0
# Processed by: cddbd v1.5.2PL0 Copyright (c) Steve Scherf et al.
# Submitted via: EasyCDDAExtractor 16.0.6.1
#
DISCID=ea0c6c12
DTITLE=Μαρινέλλα - Μαρινέλλα για πάντα
DYEAR=1996
DGENRE=Ελαφρολαϊκή
TTITLE0=Μαρινέλλα - Κι' απόψε τίποτα
TTITLE1=Μαρινέλλα - Σαν κάποιος θίασος
TTITLE2=Μαρινέλλα - Κι' ύστερα
TTITLE3=Μαρινέλλα - Πόσα είδα
TTITLE4=Μαρινέλλα - Γιατί φοβάσαι [From souvenirs To souvenirs]
TTITLE5=Μαρινέλλα - Αύριο
TTITLE6=Μαρινέλλα - Πάλι ύπνος δεν με πιάνει
TTITLE7=Μαρινέλλα - Κι όπως πάει
TTITLE8=Μαρινέλλα - Κάναμε λάθη
TTITLE9=Μαρινέλλα - Ούτε ένας
TTITLE10=Μαρινέλλα - Ο τελευταίος μου σταθμός
TTITLE11=Μαρινέλλα - Σταμάτα κόσμε
TTITLE12=Μαρινέλλα-χορωδία - Ντρίγκι, ντρίγκι μάννα μου [Velvet mornings]
TTITLE13=Μαρινέλλα - Πού πάνε εκείνα τα παιδιά [My reason]
TTITLE14=Μαρινέλλα - Και τώρα
TTITLE15=Μαρινέλλα - Ανάποδα μετράς
TTITLE16=Μαρινέλλα - Λέσσα, γιαλέσσα
TTITLE17=Μαρινέλλα-χορωδία - Κρασί, θάλασσα και τ' αγόρι μου
EXTD=
EXTT0=
EXTT1=
EXTT2=
EXTT3=
EXTT4=
EXTT5=
EXTT6=
EXTT7=
EXTT8=
EXTT9=
EXTT10=
EXTT11=
EXTT12=
EXTT13=
EXTT14=
EXTT15=
EXTT16=
EXTT17=
PLAYORDER=
